<?xml version="1.0" encoding="UTF-8"?>
<svg version="1.1" xmlns="http://www.w3.org/2000/svg" width="500" height="500">
<path d="M0 0 C4.90870317 1.36104952 8.68664223 3.57383811 12.75 6.5625 C13.36198242 7.00795166 13.97396484 7.45340332 14.60449219 7.91235352 C41.75006648 27.95869891 58.59049109 55.64127258 64.3125 88.75 C68.0633909 119.87518118 61.37158516 152.29205295 42.0625 177.484375 C38.52245794 181.80215357 34.83765239 185.945122 31 190 C29.91912109 191.16015625 29.91912109 191.16015625 28.81640625 192.34375 C15.23227467 206.48480676 -2.38992637 216.17818005 -21 222 C-21.63969727 222.21027832 -22.27939453 222.42055664 -22.93847656 222.63720703 C-43.37806229 229.1201796 -69.61402153 228.39464686 -90 222 C-90.69432129 221.78569336 -91.38864258 221.57138672 -92.10400391 221.35058594 C-102.1310829 218.15179176 -111.05850939 213.50460516 -120 208 C-117.06077253 204.48726473 -114.16619538 201.11877469 -110.8125 198 C-95.92749901 183.2464339 -86.22554213 163.75768336 -80 144 C-79.78472656 143.31921387 -79.56945312 142.63842773 -79.34765625 141.93701172 C-77.14806078 134.67870609 -75.9417206 127.81984597 -75.80859375 120.21484375 C-75.42639234 102.09141454 -75.42639234 102.09141454 -72.7421875 98.15576172 C-69.54791551 95.38786083 -65.82340176 94.07947032 -61.86621094 92.73681641 C-52.90461692 89.19860464 -44.93115592 80.51771855 -38 74 C-37.11441406 73.21109375 -37.11441406 73.21109375 -36.2109375 72.40625 C-16.19068285 53.80923621 -5.2852554 26.24082943 0 0 Z " fill="#018EFD" transform="translate(382,207)"/>
<path d="M0 0 C0.13986328 0.60247559 0.27972656 1.20495117 0.42382812 1.82568359 C6.9133439 29.31222591 17.67164861 51.22037308 37 72 C37.65226562 72.72960937 38.30453125 73.45921875 38.9765625 74.2109375 C43.63508665 79.19322008 48.78357937 83.2317997 54.3125 87.1875 C54.98732422 87.67460449 55.66214844 88.16170898 56.35742188 88.66357422 C59.56908543 90.90248887 62.46738346 92.7971555 66.14819336 94.19897461 C69.52863963 95.51822849 72.17228238 96.71604225 75 99 C76.81510871 103.67316762 76.84819988 108.21339122 76.9375 113.1875 C77.0794022 115.902916 77.263781 118.61510947 77.4453125 121.328125 C77.52555664 122.64490234 77.60580078 123.96167969 77.68847656 125.31835938 C78.35252604 133.16621684 80.4792088 140.56745255 83 148 C83.21495117 148.64356445 83.42990234 149.28712891 83.65136719 149.95019531 C88.94849499 165.36649998 97.06173276 179.91436207 108 192 C109.19882812 193.37671875 109.19882812 193.37671875 110.421875 194.78125 C113.7505607 198.56681413 116.85610656 202.09461853 121 205 C119.58206083 208.57103616 118.17297489 209.78398377 114.73828125 211.4375 C113.44156494 212.06495117 113.44156494 212.06495117 112.11865234 212.70507812 C111.19262207 213.13240234 110.2665918 213.55972656 109.3125 214 C108.36584473 214.44279297 107.41918945 214.88558594 106.44384766 215.34179688 C98.77617018 218.83500855 91.28272327 221.3541889 83 223 C82.227771 223.17297607 81.45554199 223.34595215 80.65991211 223.52416992 C72.71816604 225.17860856 64.9018806 225.35921923 56.8125 225.3125 C56.12546997 225.31001251 55.43843994 225.30752502 54.73059082 225.30496216 C20.97598593 225.11582082 -8.14112078 211.4730018 -31.82495117 187.73339844 C-54.2697657 164.18659343 -64.08249294 133.01315495 -64 101 C-63.01146503 70.1614629 -50.34633199 43.60703554 -30 21 C-29.36835937 20.27296875 -28.73671875 19.5459375 -28.0859375 18.796875 C-21.76974572 11.95201519 -13.72662396 7.09726201 -6 2 C-3 0 -3 0 0 0 Z " fill="#FED302" transform="translate(117,208)"/>
<path d="M0 0 C0.70870239 0.0012085 1.41740479 0.00241699 2.14758301 0.00366211 C35.00056172 0.15549349 63.52321662 12.83819533 87.125 35.625 C109.41319372 58.47745179 120.61596169 87.71329339 121.5625 119.375 C120.42554688 119.10945313 119.28859375 118.84390625 118.1171875 118.5703125 C96.29468806 113.54020261 74.76921818 111.14398431 52.5625 115.375 C51.33015625 115.60832031 50.0978125 115.84164062 48.828125 116.08203125 C33.23895702 119.50976999 18.16097976 125.85511727 5.15625 135.13671875 C2.5625 136.375 2.5625 136.375 0 135.75390625 C-2.3500601 134.4244652 -4.66011513 133.07566297 -6.9375 131.625 C-36.59140333 113.65822328 -71.74495764 109.02838223 -105.4375 116.375 C-108.45673971 117.1197458 -111.43522456 117.90752577 -114.40625 118.82421875 C-116.4375 119.375 -116.4375 119.375 -119.4375 119.375 C-121.03909307 88.58882203 -107.41661122 60.36447063 -87.5625 37.6875 C-70.7460836 19.65512733 -49.19848177 8.20631925 -25.4375 2.375 C-24.35190796 2.09462891 -24.35190796 2.09462891 -23.24438477 1.80859375 C-15.55322034 0.02162058 -7.86382569 -0.02476218 0 0 Z " fill="#FD4761" transform="translate(248.4375,66.625)"/>
<path d="M0 0 C0.67466309 0.17660156 1.34932617 0.35320312 2.04443359 0.53515625 C12.83495519 3.47431472 22.30330308 8.55228411 32 14 C30.48568834 17.62941 28.35056071 19.76284414 25.5 22.4375 C5.10574446 42.53873462 -6.45680799 68.17463487 -12 96 C-16.90897114 94.63887618 -20.6860488 92.42558283 -24.75 89.4375 C-25.35980713 88.99494873 -25.96961426 88.55239746 -26.59790039 88.09643555 C-32.05703743 84.07395125 -37.10040648 79.68771921 -42 75 C-42.62261719 74.42894531 -43.24523437 73.85789062 -43.88671875 73.26953125 C-61.85156905 56.27357176 -74.83807836 28.69083483 -76 4 C-51.12174549 -5.28347845 -25.76485477 -6.82093898 0 0 Z " fill="#FDA603" transform="translate(206,197)"/>
<path d="M0 0 C-1.37757936 29.27356141 -17.43004244 56.67611447 -38.375 76.375 C-55.5519247 92 -55.5519247 92 -63 92 C-63.29132813 90.73027344 -63.58265625 89.46054687 -63.8828125 88.15234375 C-70.17089448 61.45470601 -82.43561835 32.26842651 -104.79296875 14.8203125 C-105.52128906 14.21960938 -106.24960937 13.61890625 -107 13 C-107 12.34 -107 11.68 -107 11 C-73.26919438 -8.34488706 -36.99398965 -11.71674592 0 0 Z " fill="#696DE8" transform="translate(369,200)"/>
<path d="M0 0 C1.70542969 0.39832031 1.70542969 0.39832031 3.4453125 0.8046875 C30.10573286 6.95061293 56.48626419 8.7218014 82.96875 0.55078125 C85 0 85 0 88 0 C89.70376296 29.21637966 76.40990391 57.54763924 57.9375 79.375 C57.21385254 80.23182373 57.21385254 80.23182373 56.47558594 81.10595703 C52.96729816 85.14533759 49.14201025 88.61879835 45 92 C27.19264782 83.85667302 14.14381215 59.56721149 7.4296875 42.07421875 C2.59630696 28.1384539 0.51428592 14.64828177 0 0 Z " fill="#8DC640" transform="translate(206,314)"/>
<path d="M0 0 C2.30069808 0.81529329 3.44082433 1.7020505 5.17529297 3.40283203 C5.74296387 3.95898193 6.31063477 4.51513184 6.89550781 5.08813477 C7.49057129 5.69343018 8.08563477 6.29872559 8.69873047 6.92236328 C9.31828613 7.55021729 9.9378418 8.17807129 10.57617188 8.82495117 C27.23415983 26.08817505 41.35470065 50.8829984 42.19873047 75.35986328 C42.15748047 76.14361328 42.11623047 76.92736328 42.07373047 77.73486328 C15.83473931 91.03117147 -16.90569443 87.29282678 -43.92626953 78.73486328 C-42.65197577 51.65612096 -28.91814211 27.89762685 -11.17626953 8.29736328 C-10.71631592 7.78866699 -10.2563623 7.2799707 -9.7824707 6.75585938 C-3.155821 -0.43437536 -3.155821 -0.43437536 0 0 Z " fill="#9E9FA3" transform="translate(250.92626953125,221.26513671875)"/>
<path d="M0 0 C0.66 0.33 1.32 0.66 2 1 C0.75 2.5 0.75 2.5 -1 4 C-2.32 4 -3.64 4 -5 4 C-6.4606285 6.64738916 -7 7.89448334 -7 11 C-7 11.99 -7 12.98 -7 14 C-5.56249809 15.68798827 -5.56249809 15.68798827 -4 17 C-7.74016583 17 -8.45276193 16.0658409 -11.1875 13.625 C-12.26064453 12.68527344 -12.26064453 12.68527344 -13.35546875 11.7265625 C-15 10 -15 10 -15 8 C-12.54665445 6.63603538 -10.08808766 5.28365831 -7.625 3.9375 C-6.92632812 3.54755859 -6.22765625 3.15761719 -5.5078125 2.75585938 C-3.70389816 1.77584822 -1.85416518 0.88124929 0 0 Z " fill="#6A6DD8" transform="translate(277,203)"/>
<path d="M0 0 C1.37128052 -0.0009668 1.37128052 -0.0009668 2.77026367 -0.00195312 C10.2845566 0.05610797 17.48059808 0.79561258 24.875 2.1875 C24.875 2.5175 24.875 2.8475 24.875 3.1875 C22.235 3.5175 19.595 3.8475 16.875 4.1875 C16.875 3.5275 16.875 2.8675 16.875 2.1875 C5.325 2.1875 -6.225 2.1875 -18.125 2.1875 C-18.125 1.8575 -18.125 1.5275 -18.125 1.1875 C-12.05113047 0.30671846 -6.13469589 -0.00449964 0 0 Z " fill="#6F6ECB" transform="translate(326.125,192.8125)"/>
<path d="M0 0 C0.33 0.66 0.66 1.32 1 2 C7.27 2 13.54 2 20 2 C20 2.33 20 2.66 20 3 C19.05640625 3.10957031 18.1128125 3.21914062 17.140625 3.33203125 C9.7482062 4.24495044 2.68153938 5.40432786 -4.51171875 7.4140625 C-7 8 -7 8 -11 8 C-11 7.34 -11 6.68 -11 6 C-9.35 6 -7.7 6 -6 6 C-5.938125 5.38125 -5.87625 4.7625 -5.8125 4.125 C-5 2 -5 2 -2.4375 0.75 C-1.633125 0.5025 -0.82875 0.255 0 0 Z " fill="#EC5169" transform="translate(296,177)"/>
<path d="M0 0 C0 0.66 0 1.32 0 2 C-0.99 2 -1.98 2 -3 2 C-3.04947698 5.93265896 -3.08575578 9.86519714 -3.10986328 13.7980957 C-3.12485495 15.79319618 -3.15026731 17.78820946 -3.17578125 19.78320312 C-3.18222656 21.03681641 -3.18867188 22.29042969 -3.1953125 23.58203125 C-3.20578613 24.73936768 -3.21625977 25.8967041 -3.22705078 27.08911133 C-3.22319863 30.19421173 -3.22319863 30.19421173 -1 33 C-2.28965176 34.37562854 -3.62689293 35.70766393 -5 37 C-5.66 37 -6.32 37 -7 37 C-6.86722656 35.90945313 -6.73445313 34.81890625 -6.59765625 33.6953125 C-5.30974442 22.80527542 -4.49201315 11.95376644 -4 1 C-2 0 -2 0 0 0 Z " fill="#278FE1" transform="translate(312,306)"/>
<path d="M0 0 C3.32892123 3.6803616 4.36852754 7.77128626 5.6875 12.4375 C5.91244141 13.18837891 6.13738281 13.93925781 6.36914062 14.71289062 C7.48444593 18.56730439 8.29833251 21.94429052 8 26 C6.0625 25.1875 6.0625 25.1875 4 24 C3 21 3 21 3.6875 17.9375 C4.06257421 13.211565 2.87253776 10.55614059 0.91015625 6.33203125 C0 4 0 4 0 0 Z " fill="#ED506A" transform="translate(359,139)"/>
<path d="M0 0 C2.3125 0.125 2.3125 0.125 5 1 C6.03432904 2.98246398 7.03238392 4.98413316 8 7 C9.64821244 8.03013277 11.31503702 9.03114628 13 10 C14.875 12.5625 14.875 12.5625 16 15 C15.67 15.66 15.34 16.32 15 17 C12.67934614 14.73737364 10.36996401 12.46356994 8.0625 10.1875 C7.40314453 9.54490234 6.74378906 8.90230469 6.06445312 8.24023438 C5.43603516 7.61826172 4.80761719 6.99628906 4.16015625 6.35546875 C3.57886963 5.78465576 2.99758301 5.21384277 2.39868164 4.62573242 C1 3 1 3 0 0 Z " fill="#92C04E" transform="translate(232,387)"/>
<path d="M0 0 C0.66 0.33 1.32 0.66 2 1 C1.01 2.485 1.01 2.485 0 4 C-0.99 4 -1.98 4 -3 4 C-3 5.32 -3 6.64 -3 8 C-3.78375 8.2475 -4.5675 8.495 -5.375 8.75 C-8.11976952 9.72681333 -8.11976952 9.72681333 -9 12 C-10 14 -10 14 -12.625 15.25 C-13.40875 15.4975 -14.1925 15.745 -15 16 C-13.48625275 12.42723096 -11.38105612 10.14319629 -8.625 7.4375 C-7.85414062 6.67308594 -7.08328125 5.90867188 -6.2890625 5.12109375 C-4.27286711 3.25284444 -2.23393837 1.59639888 0 0 Z " fill="#F5D32E" transform="translate(99,218)"/>
<path d="M0 0 C0.99 0 1.98 0 3 0 C1.18633597 4.12764916 -1.49146618 7.62059205 -4.125 11.25 C-4.59292969 11.8996875 -5.06085938 12.549375 -5.54296875 13.21875 C-6.69274282 14.81435483 -7.84602566 16.40743025 -9 18 C-9.87840996 14.90279155 -9.99435406 13.09354597 -9 10 C-8.67 10.66 -8.34 11.32 -8 12 C-7.3503125 10.5459375 -7.3503125 10.5459375 -6.6875 9.0625 C-5 6 -5 6 -2 5 C-2 4.34 -2 3.68 -2 3 C-1.34 3 -0.68 3 0 3 C0 2.01 0 1.02 0 0 Z " fill="#EFA61D" transform="translate(221,226)"/>
<path d="M0 0 C1.5159375 0.37125 1.5159375 0.37125 3.0625 0.75 C4.72877298 0.78622333 6.39655374 0.79899842 8.0625 0.75 C5.53982009 2.43178661 3.25158177 3.65106742 0.5 4.875 C-0.28503906 5.22820312 -1.07007813 5.58140625 -1.87890625 5.9453125 C-3.9375 6.75 -3.9375 6.75 -5.9375 6.75 C-6.2675 5.76 -6.5975 4.77 -6.9375 3.75 C-3.73266616 -0.31767372 -3.73266616 -0.31767372 0 0 Z " fill="#F24D63" transform="translate(271.9375,186.25)"/>
<path d="M0 0 C2.97 0.33 5.94 0.66 9 1 C9 1.66 9 2.32 9 3 C13.455 2.505 13.455 2.505 18 2 C18.33 2.66 18.66 3.32 19 4 C21.02463255 4.65213292 21.02463255 4.65213292 23 5 C23 5.66 23 6.32 23 7 C14.72550999 6.57200914 7.66700112 3.95555804 0 1 C0 0.67 0 0.34 0 0 Z " fill="#1890E9" transform="translate(281,424)"/>
<path d="M0 0 C1.8125 0.5 1.8125 0.5 4 2 C4.76386071 3.85983478 5.51243535 5.72941103 6.13671875 7.640625 C7.43291613 11.18317348 9.28378151 14.40866319 11.109375 17.703125 C12.14302812 20.36886201 11.79697948 21.33733219 11 24 C9.35131374 20.56386118 7.70654396 17.12586207 6.0625 13.6875 C5.59392578 12.71103516 5.12535156 11.73457031 4.64257812 10.72851562 C4.19462891 9.79072266 3.74667969 8.85292969 3.28515625 7.88671875 C2.87144775 7.02264404 2.45773926 6.15856934 2.03149414 5.26831055 C1 3 1 3 0 0 Z " fill="#6D70CB" transform="translate(288,242)"/>
<path d="M0 0 C0.33 1.98 0.66 3.96 1 6 C-1.31 5.67 -3.62 5.34 -6 5 C-6 5.33 -6 5.66 -6 6 C-7.65 6 -9.3 6 -11 6 C-7.57865372 2.33427184 -5.14341528 0 0 0 Z " fill="#FAD214" transform="translate(116,209)"/>
<path d="M0 0 C0.33 0 0.66 0 1 0 C0.57200914 8.27449001 -2.04444196 15.33299888 -5 23 C-6.09141134 19.74041579 -5.9119066 17.99827831 -4.6875 14.8125 C-3.24084571 10.82924641 -2.25180298 6.90384662 -1.4296875 2.75 C-1 1 -1 1 0 0 Z " fill="#676ACA" transform="translate(366,210)"/>
<path d="M0 0 C2.64 0.33 5.28 0.66 8 1 C3.17353323 4.21764451 -2.19821824 5.36261136 -8 5 C-7.67 4.01 -7.34 3.02 -7 2 C-4 1 -4 1 -1.8125 1.9375 C-1.214375 2.288125 -0.61625 2.63875 0 3 C0 2.01 0 1.02 0 0 Z " fill="#1A8DE6" transform="translate(356,426)"/>
<path d="M0 0 C1.32 0.33 2.64 0.66 4 1 C1.36 5.29 -1.28 9.58 -4 14 C-4.33 12.68 -4.66 11.36 -5 10 C-4.34 10 -3.68 10 -3 10 C-3 8.35 -3 6.7 -3 5 C-1.68 4.67 -0.36 4.34 1 4 C0.67 2.68 0.34 1.36 0 0 Z " fill="#1D8DE1" transform="translate(428,371)"/>
<path d="M0 0 C0 0.66 0 1.32 0 2 C-0.99 2 -1.98 2 -3 2 C-3.433125 2.9590625 -3.433125 2.9590625 -3.875 3.9375 C-5 6 -5 6 -7 7 C-8.99960012 7.039992 -11.00047242 7.04346799 -13 7 C-10.84545751 4.64283596 -8.80280126 3.21033856 -5.9375 1.8125 C-5.24527344 1.46832031 -4.55304688 1.12414062 -3.83984375 0.76953125 C-2 0 -2 0 0 0 Z " fill="#EB5068" transform="translate(201,77)"/>
<path d="M0 0 C0.78375 0.804375 1.5675 1.60875 2.375 2.4375 C4.71982856 4.98690417 4.71982856 4.98690417 7 6 C6.67 8.31 6.34 10.62 6 13 C2.84297684 9.09130466 0 5.1385061 0 0 Z " fill="#91C14F" transform="translate(215,357)"/>
<path d="M0 0 C0.33 0 0.66 0 1 0 C1.309375 1.11375 1.61875 2.2275 1.9375 3.375 C2.82326483 6.7945155 2.82326483 6.7945155 4 9 C2.71034824 10.37562854 1.37310707 11.70766393 0 13 C-0.66 13 -1.32 13 -2 13 C-1.85769192 11.58297487 -1.71099254 10.1663904 -1.5625 8.75 C-1.48128906 7.96109375 -1.40007812 7.1721875 -1.31640625 6.359375 C-1.02365007 4.17635361 -0.57935581 2.1226818 0 0 Z " fill="#138EEB" transform="translate(307,330)"/>
<path d="M0 0 C4.65547148 0.9310943 6.70995074 3.70995074 10 7 C9.01 7.99 8.02 8.98 7 10 C5.83043409 8.52312468 4.66441854 7.04343707 3.5 5.5625 C2.8503125 4.73878906 2.200625 3.91507812 1.53125 3.06640625 C0 1 0 1 0 0 Z " fill="#F2A71A" transform="translate(151,256)"/>
<path d="M0 0 C4.43090471 1.20842856 6.98112756 2.51668565 10 6 C5.545 5.01 5.545 5.01 1 4 C0.67 5.32 0.34 6.64 0 8 C-0.98120464 4.94736336 -0.98120464 3.05263664 0 0 Z " fill="#1E86DD" transform="translate(382,207)"/>
<path d="M0 0 C0.66 0.33 1.32 0.66 2 1 C1.38125 1.2475 0.7625 1.495 0.125 1.75 C-2.37014283 3.21773108 -2.90127713 4.37996855 -4 7 C-5 8 -5 8 -8.0625 8.0625 C-9.031875 8.041875 -10.00125 8.02125 -11 8 C-8.83385197 5.69125289 -6.60793392 3.94709819 -3.9375 2.25 C-2.89916016 1.57710938 -2.89916016 1.57710938 -1.83984375 0.890625 C-1.23269531 0.59671875 -0.62554687 0.3028125 0 0 Z " fill="#1C8BE2" transform="translate(323,298)"/>
<path d="M0 0 C0.66 0 1.32 0 2 0 C1.67 2.97 1.34 5.94 1 9 C-1.02045442 8.39816251 -3.02111039 7.72693904 -5 7 C-5.33 6.34 -5.66 5.68 -6 5 C-2.25 3.875 -2.25 3.875 0 5 C0 3.35 0 1.7 0 0 Z " fill="#F0A625" transform="translate(193,284)"/>
<path d="M0 0 C2.12161334 2.12161334 2.92986249 3.7733159 4.125 6.5 C4.47820312 7.2940625 4.83140625 8.088125 5.1953125 8.90625 C6 11 6 11 6 13 C5.34 13 4.68 13 4 13 C3.67 12.34 3.34 11.68 3 11 C2.34 11 1.68 11 1 11 C0.67 7.37 0.34 3.74 0 0 Z " fill="#F5D220" transform="translate(201,362)"/>
<path d="M0 0 C2.31 0.33 4.62 0.66 7 1 C6.37240135 3.92879371 5.41377341 6.36095629 4 9 C0 2.25 0 2.25 0 0 Z " fill="#F5A717" transform="translate(143,242)"/>
<path d="M0 0 C1.125 1.625 1.125 1.625 2 4 C1.375 7.1875 1.375 7.1875 0 10 C-2.0859375 10.67578125 -2.0859375 10.67578125 -4 11 C-3.52269162 9.5410574 -3.04308958 8.08286504 -2.5625 6.625 C-2.29566406 5.81289062 -2.02882812 5.00078125 -1.75390625 4.1640625 C-1 2 -1 2 0 0 Z " fill="#EB5169" transform="translate(141,133)"/>
<path d="M0 0 C-2.43313372 1.03251062 -4.87056892 2.05119521 -7.3125 3.0625 C-8.34793945 3.50432617 -8.34793945 3.50432617 -9.40429688 3.95507812 C-14.66015625 6.11328125 -14.66015625 6.11328125 -18 5 C-5.333001 -1.777667 -5.333001 -1.777667 0 0 Z " fill="#F1D32C" transform="translate(224,423)"/>
<path d="M0 0 C0 2 0 4 0 6 C-0.66 6 -1.32 6 -2 6 C-2 6.66 -2 7.32 -2 8 C-4.31 8.66 -6.62 9.32 -9 10 C-8.06409496 8.8944811 -7.12620142 7.79064547 -6.1875 6.6875 C-5.66542969 6.07261719 -5.14335937 5.45773437 -4.60546875 4.82421875 C-3.12827531 3.14575321 -1.59960869 1.56117966 0 0 Z " fill="#1889E5" transform="translate(346,279)"/>
<path d="M0 0 C0.99 0.33 1.98 0.66 3 1 C-1.455 3.97 -1.455 3.97 -6 7 C-6.66 6.67 -7.32 6.34 -8 6 C-7.25 4.0625 -7.25 4.0625 -6 2 C-4 1.3125 -4 1.3125 -2 1 C-1.34 0.67 -0.68 0.34 0 0 Z " fill="#696ECE" transform="translate(318,283)"/>
<path d="M0 0 C0.33 1.32 0.66 2.64 1 4 C-0.32 4.33 -1.64 4.66 -3 5 C-3.33 6.65 -3.66 8.3 -4 10 C-4.99 10 -5.98 10 -7 10 C-5.33248852 6.05860922 -2.77289351 3.2107188 0 0 Z " fill="#F5D71B" transform="translate(82,235)"/>
<path d="M0 0 C0.99 0.66 1.98 1.32 3 2 C2.875 3.8125 2.875 3.8125 2 6 C-1.0625 7.75 -1.0625 7.75 -4 9 C-2.80100302 5.9168649 -1.52299523 2.93720508 0 0 Z " fill="#148CE8" transform="translate(291,377)"/>
<path d="M0 0 C0.66 0.33 1.32 0.66 2 1 C1.01 2.485 1.01 2.485 0 4 C-0.99 4 -1.98 4 -3 4 C-3 5.32 -3 6.64 -3 8 C-4.65 8.66 -6.3 9.32 -8 10 C-6.02677065 5.43041625 -4.07763771 2.86536704 0 0 Z " fill="#F7DA18" transform="translate(99,218)"/>
<path d="M0 0 C0.99 0.33 1.98 0.66 3 1 C3 1.99 3 2.98 3 4 C-1.625 6.125 -1.625 6.125 -5 5 C-3.35 3.35 -1.7 1.7 0 0 Z " fill="#F7394D" transform="translate(166,99)"/>
<path d="M0 0 C-1.65 0.33 -3.3 0.66 -5 1 C-5 1.66 -5 2.32 -5 3 C-8.63 3.33 -12.26 3.66 -16 4 C-13.41588269 2.27725513 -11.45097344 1.31104478 -8.5625 0.3125 C-7.41974609 -0.09548828 -7.41974609 -0.09548828 -6.25390625 -0.51171875 C-3.78170279 -1.04729142 -2.37016716 -0.80445309 0 0 Z " fill="#E5536B" transform="translate(219,72)"/>
<path d="M0 0 C1.134375 0.020625 2.26875 0.04125 3.4375 0.0625 C0.23759492 2.80527578 -2.56749382 4.6927836 -6.5625 6.0625 C-4.25951087 0.07472826 -4.25951087 0.07472826 0 0 Z " fill="#E74F65" transform="translate(262.5625,192.9375)"/>
<path d="M0 0 C3.68965517 3.68965517 3.68965517 3.68965517 4 7 C3.01 8.485 3.01 8.485 2 10 C1.34 9.67 0.68 9.34 0 9 C0 6.03 0 3.06 0 0 Z " fill="#EA5168" transform="translate(353,127)"/>
<path d="M0 0 C0.99 0.33 1.98 0.66 3 1 C0.53846154 5.8 0.53846154 5.8 -2.1875 6.8125 C-2.785625 6.874375 -3.38375 6.93625 -4 7 C-2.79618552 4.50638429 -1.54571278 2.31856917 0 0 Z " fill="#F04E67" transform="translate(153,114)"/>
<path d="M0 0 C3.93673644 1.31224548 6.22719294 2.91910327 9 6 C6.525 5.01 6.525 5.01 4 4 C3.67 4.66 3.34 5.32 3 6 C3 5.34 3 4.68 3 4 C2.34 4 1.68 4 1 4 C0.67 2.68 0.34 1.36 0 0 Z " fill="#EB5069" transform="translate(312,85)"/>
<path d="M0 0 C2.64752004 2.57784846 4.94432065 4.91648098 7 8 C4.04590299 6.62845496 1.55991624 5.01136276 -1 3 C-0.67 2.01 -0.34 1.02 0 0 Z " fill="#F2D022" transform="translate(218,393)"/>
<path d="M0 0 C6.625 -0.25 6.625 -0.25 10 2 C6.37 2.33 2.74 2.66 -1 3 C-0.67 2.01 -0.34 1.02 0 0 Z " fill="#F6A612" transform="translate(199,197)"/>
<path d="M0 0 C-1.45264038 0.8638129 -2.9123163 1.71580454 -4.375 2.5625 C-5.59316406 3.27599609 -5.59316406 3.27599609 -6.8359375 4.00390625 C-7.55007813 4.33261719 -8.26421875 4.66132813 -9 5 C-9.66 4.67 -10.32 4.34 -11 4 C-4.02040816 -2.01020408 -4.02040816 -2.01020408 0 0 Z " fill="#248EDC" transform="translate(386,418)"/>
<path d="M0 0 C0.66 0 1.32 0 2 0 C1.67 2.64 1.34 5.28 1 8 C-1.2477975 5.94766315 -2.0022242 4.99332739 -3 2 C-2.34 2 -1.68 2 -1 2 C-0.67 1.34 -0.34 0.68 0 0 Z " fill="#91BE51" transform="translate(226,372)"/>
<path d="M0 0 C3.64553172 1.2808625 5.16671013 2.16671013 8 5 C5.03 4.67 2.06 4.34 -1 4 C-0.67 2.68 -0.34 1.36 0 0 Z " fill="#F7CF21" transform="translate(175,299)"/>
<path d="M0 0 C2.475 0.99 2.475 0.99 5 2 C4.34 3.32 3.68 4.64 3 6 C2.01 5.67 1.02 5.34 0 5 C0 3.35 0 1.7 0 0 Z " fill="#F2A521" transform="translate(233,209)"/>
<path d="M0 0 C0.66 0.33 1.32 0.66 2 1 C0.75 2.5 0.75 2.5 -1 4 C-2.32 4 -3.64 4 -5 4 C-5 4.66 -5 5.32 -5 6 C-5.99 5.67 -6.98 5.34 -8 5 C-5.45378681 2.99940392 -3.01962385 1.20784954 0 0 Z " fill="#6C72C7" transform="translate(277,203)"/>
<path d="M0 0 C3.08089673 2.77280706 4.68775452 5.06326356 6 9 C4.68 8.67 3.36 8.34 2 8 C1.34 5.36 0.68 2.72 0 0 Z " fill="#E8516A" transform="translate(346,116)"/>
<path d="M0 0 C1.485 0.99 1.485 0.99 3 2 C3.29296875 4.1640625 3.29296875 4.1640625 3.1875 6.625 C3.16042969 7.44226563 3.13335937 8.25953125 3.10546875 9.1015625 C3.07066406 9.72804688 3.03585937 10.35453125 3 11 C1.0210244 7.36383344 0.4748935 4.11574371 0 0 Z " fill="#6E6FCE" transform="translate(302,272)"/>
<path d="M0 0 C1 3 1 3 1 6 C0.01 6.495 0.01 6.495 -1 7 C-1.99 6.01 -2.98 5.02 -4 4 C-2.68 2.68 -1.36 1.36 0 0 Z " fill="#278CD6" transform="translate(266,410)"/>
<path d="M0 0 C2.27521866 2.16687491 4.15794162 4.45620509 6 7 C5.67 7.66 5.34 8.32 5 9 C3.0625 7.875 3.0625 7.875 1 6 C0.25 2.8125 0.25 2.8125 0 0 Z " fill="#F3D128" transform="translate(212,384)"/>
<path d="M0 0 C1.5 1.3125 1.5 1.3125 3 3 C3 3.99 3 4.98 3 6 C3.66 6.33 4.32 6.66 5 7 C3.68 7.33 2.36 7.66 1 8 C0.67 5.36 0.34 2.72 0 0 Z " fill="#6B71C8" transform="translate(305,284)"/>
<path d="M0 0 C2.475 0.495 2.475 0.495 5 1 C5.66 2.98 6.32 4.96 7 7 C5.83040013 6.02433888 4.66438823 5.044375 3.5 4.0625 C2.8503125 3.51722656 2.200625 2.97195313 1.53125 2.41015625 C1.0259375 1.94480469 0.520625 1.47945313 0 1 C0 0.67 0 0.34 0 0 Z " fill="#E7A929" transform="translate(159,266)"/>
<path d="M0 0 C1.32 0.33 2.64 0.66 4 1 C3.67 1.66 3.34 2.32 3 3 C3.99 3.33 4.98 3.66 6 4 C4.02 4.99 4.02 4.99 2 6 C1.34 4.02 0.68 2.04 0 0 Z " fill="#676CD8" transform="translate(337,259)"/>
<path d="M0 0 C1.32 0.33 2.64 0.66 4 1 C1.03 3.475 1.03 3.475 -2 6 C-2 4.68 -2 3.36 -2 2 C-1.34 2 -0.68 2 0 2 C0 1.34 0 0.68 0 0 Z " fill="#EEA522" transform="translate(229,217)"/>
</svg>
